<?xml version="1.0" standalone="no"?>
<!DOCTYPE svg PUBLIC "-//W3C//DTD SVG 20010904//EN"
 "http://www.w3.org/TR/2001/REC-SVG-20010904/DTD/svg10.dtd">
<svg version="1.0" xmlns="http://www.w3.org/2000/svg"
 width="558.000000pt" height="558.000000pt" viewBox="0 0 558.000000 558.000000"
 preserveAspectRatio="xMidYMid meet">
<metadata>
Created by potrace 1.11, written by Peter Selinger 2001-2013
</metadata>
<g transform="translate(0.000000,558.000000) scale(0.100000,-0.100000)"
fill="#000000" stroke="none">
<path d="M1440 3431 c-59 -24 -445 -300 -634 -452 -33 -27 -62 -46 -64 -44 -6
6 40 84 104 178 54 79 63 100 44 112 -6 4 -8 11 -5 16 4 5 -4 9 -16 9 -76 0
-549 -459 -549 -533 0 -61 23 -73 54 -29 75 105 371 421 383 409 3 -4 -38 -75
-106 -181 -36 -58 -39 -86 -11 -111 19 -17 21 -17 73 17 29 20 105 78 168 130
133 111 348 272 391 294 28 15 28 13 -16 -43 -85 -107 -394 -530 -459 -626
-35 -52 -70 -109 -77 -127 -12 -29 -11 -33 3 -42 9 -5 17 -20 17 -33 0 -18 5
-25 19 -25 15 0 31 21 61 78 69 132 284 440 423 607 33 38 66 83 74 100 8 16
30 46 47 65 18 19 49 58 68 86 30 42 36 60 36 98 -1 51 -5 57 -28 47z m-230
-355 c0 -8 -20 -36 -45 -64 -25 -27 -45 -53 -45 -57 0 -8 -150 -185 -158 -185
-2 0 7 15 21 33 15 17 70 89 124 159 54 70 99 128 101 128 1 0 2 -6 2 -14z
m-290 -50 c0 -2 -8 -10 -17 -17 -16 -13 -17 -12 -4 4 13 16 21 21 21 13z"/>
<path d="M3655 3356 c-244 -125 -349 -192 -515 -332 l-105 -89 40 55 c22 30
79 108 127 173 71 95 88 125 88 153 0 30 -3 34 -25 34 -20 0 -43 -22 -110
-107 -47 -59 -123 -162 -169 -228 -46 -66 -107 -151 -135 -190 -28 -38 -51
-77 -51 -87 0 -9 11 -30 24 -45 l25 -28 48 46 c216 204 386 349 507 432 61 42
337 189 343 183 5 -5 -124 -169 -255 -322 -207 -245 -281 -348 -357 -506 -48
-98 -53 -123 -31 -154 24 -31 45 -8 116 128 63 122 143 245 206 317 17 20 43
55 58 79 14 23 31 42 36 42 6 0 10 4 10 10 0 5 25 36 56 67 31 32 68 76 82 98
29 43 35 50 85 111 70 86 97 138 95 183 -2 70 -15 68 -193 -23z"/>
<path d="M5230 3268 c-36 -45 -101 -128 -146 -185 -78 -100 -86 -107 -200
-174 -219 -129 -326 -171 -340 -134 -12 30 9 46 101 80 181 64 236 106 218
162 -8 22 -17 29 -43 31 -73 7 -251 -113 -310 -210 -42 -69 -13 -124 64 -122
52 2 169 55 281 128 47 31 85 54 85 52 0 -2 -21 -34 -46 -72 -55 -81 -114
-200 -114 -229 0 -22 16 -52 24 -45 2 3 18 31 35 63 17 32 40 71 51 85 11 15
57 76 101 136 45 60 122 159 173 220 175 209 198 250 164 284 -21 21 -31 13
-98 -70z m-395 -277 c-3 -6 -29 -23 -56 -36 -27 -14 -49 -29 -49 -34 0 -5 -15
-12 -32 -16 -18 -4 -42 -9 -53 -12 -41 -10 28 46 105 87 68 35 103 40 85 11z"/>
<path d="M4594 3125 c-70 -77 -102 -104 -113 -99 -56 23 -71 26 -102 20 -20
-3 -65 -23 -100 -44 -35 -21 -122 -72 -194 -112 -71 -41 -145 -83 -164 -94
-24 -14 -32 -16 -26 -6 34 55 73 110 102 143 19 21 39 49 45 63 11 23 9 28
-18 49 -39 32 -75 31 -144 -6 -124 -66 -256 -219 -248 -287 5 -48 42 -40 143
32 49 36 91 63 93 61 2 -1 -9 -26 -25 -54 -29 -52 -26 -82 9 -89 9 -2 65 28
124 66 60 39 111 68 113 67 1 -2 -4 -14 -13 -27 -19 -26 -21 -89 -4 -106 30
-30 85 -8 211 82 42 31 79 56 82 56 2 0 -9 -20 -26 -44 -72 -107 -101 -218
-66 -253 17 -18 39 -9 31 12 -9 23 24 106 61 155 19 25 68 92 109 150 82 117
114 157 200 254 56 63 58 68 46 91 -7 14 -17 25 -21 25 -4 0 -51 -47 -105
-105z m-624 -108 c0 -23 -65 -82 -164 -152 -52 -36 -97 -65 -100 -65 -10 0 34
60 69 95 33 32 128 105 160 123 27 15 35 15 35 -1z m468 -10 c6 -7 8 -17 4
-23 -9 -14 -279 -217 -309 -233 -36 -18 -37 5 -3 54 40 58 148 147 224 185 67
34 70 35 84 17z"/>
<path d="M1971 3149 c-13 -38 -7 -49 25 -49 30 0 40 23 26 56 -16 33 -38 30
-51 -7z"/>
<path d="M1531 3033 c-180 -106 -311 -313 -197 -313 6 0 52 29 100 65 49 36
91 64 93 61 2 -2 -8 -27 -24 -55 -22 -40 -26 -54 -17 -68 6 -10 18 -19 26 -21
8 -2 71 32 139 76 158 100 149 95 149 85 0 -4 -31 -50 -69 -102 -56 -75 -84
-103 -148 -146 -160 -107 -267 -273 -182 -283 18 -2 41 9 77 38 29 22 52 45
52 51 0 7 -6 6 -17 -2 -10 -8 -3 5 16 29 18 23 35 42 39 42 3 0 1 -5 -6 -12
-7 -7 -12 -18 -12 -26 0 -9 7 -6 19 9 10 13 40 47 66 74 64 68 247 313 297
396 72 122 46 194 -30 82 -35 -51 -53 -66 -153 -122 -63 -36 -134 -76 -158
-90 -27 -14 -41 -19 -36 -10 17 28 86 125 121 168 19 24 34 51 32 60 -2 9 -7
14 -10 11 -4 -3 -15 5 -23 18 -24 33 -69 29 -144 -15z m99 -16 c0 -24 -55 -76
-160 -151 -57 -41 -106 -73 -108 -71 -6 6 38 65 78 106 38 38 165 129 181 129
5 0 9 -6 9 -13z m18 -436 c-13 -15 -25 -27 -27 -25 -4 4 39 54 47 54 2 0 -7
-13 -20 -29z m-67 -8 c-5 -10 -44 -52 -86 -93 -56 -55 -73 -67 -62 -45 14 28
138 155 151 155 4 0 2 -8 -3 -17z"/>
<path d="M2150 3033 c-179 -105 -310 -313 -196 -313 6 0 52 29 100 65 49 36
91 64 93 61 2 -2 -8 -27 -24 -55 -22 -40 -26 -54 -17 -68 6 -10 18 -19 26 -21
21 -4 398 237 398 254 0 28 -1 27 -354 -174 -16 -9 56 97 119 176 36 45 44 72
22 72 -7 0 -18 9 -25 20 -19 31 -68 25 -142 -17z m100 -16 c0 -24 -55 -76
-160 -151 -57 -41 -106 -73 -108 -71 -6 6 38 65 78 106 38 38 165 129 181 129
5 0 9 -6 9 -13z"/>
</g>
</svg>
