<?xml version="1.0" standalone="no"?>
<!DOCTYPE svg PUBLIC "-//W3C//DTD SVG 20010904//EN"
 "http://www.w3.org/TR/2001/REC-SVG-20010904/DTD/svg10.dtd">
<svg version="1.0" xmlns="http://www.w3.org/2000/svg"
 width="500.000000pt" height="500.000000pt" viewBox="0 0 500.000000 500.000000"
 preserveAspectRatio="xMidYMid meet">
<metadata>
Created by potrace 1.11, written by Peter Selinger 2001-2013
</metadata>
<g transform="translate(0.000000,500.000000) scale(0.100000,-0.100000)"
fill="#000000" stroke="none">
<path d="M1975 3640 c-38 -42 -12 -100 46 -100 33 0 52 22 52 62 0 54 -62 78
-98 38z"/>
<path d="M2112 3548 c-33 -11 -127 -87 -118 -95 3 -3 -3 -14 -13 -25 -21 -22
-31 -61 -31 -125 0 -129 120 -244 255 -244 24 0 105 25 105 33 0 4 6 8 14 8
11 0 14 -18 14 -82 0 -50 -5 -86 -12 -91 -8 -6 -8 -10 2 -14 6 -2 12 -16 12
-29 0 -22 -4 -24 -54 -24 -34 0 -56 5 -59 13 -4 10 -6 10 -6 0 -1 -8 -16 -13
-39 -13 -34 0 -41 5 -82 62 -102 140 -277 228 -453 228 -67 0 -173 -22 -215
-44 -25 -13 -28 -12 -49 17 -29 39 -106 94 -144 102 -16 4 -33 14 -39 23 -5
10 -10 12 -10 5 0 -9 -17 -13 -50 -13 -70 0 -150 -33 -202 -84 -52 -50 -75
-96 -90 -175 -11 -56 -12 -58 -61 -81 -47 -23 -101 -70 -177 -156 -19 -21 -45
-46 -58 -54 -56 -37 -139 -209 -109 -226 7 -4 9 -4 5 0 -9 11 21 106 45 141
26 39 79 95 88 95 5 0 2 -15 -6 -34 -46 -109 -40 -256 14 -371 28 -61 106
-152 161 -187 l25 -17 -30 5 c-68 10 -92 17 -125 37 -48 27 -97 75 -125 118
-20 31 -51 116 -53 142 0 5 -3 11 -6 14 -5 6 -3 -7 10 -72 3 -16 18 -50 32
-75 61 -107 154 -165 280 -175 20 -1 53 -9 73 -18 20 -8 56 -18 80 -22 61 -11
186 -7 210 6 20 10 20 9 5 -20 -27 -51 -18 -59 13 -12 27 40 61 72 61 56 0 -3
-16 -29 -35 -58 -19 -28 -35 -58 -35 -66 0 -17 31 24 75 97 17 28 42 58 57 66
22 13 14 -3 -44 -89 -38 -57 -68 -109 -66 -115 3 -10 145 193 159 229 6 14 8
14 14 -1 4 -11 -19 -54 -74 -136 -44 -66 -77 -123 -74 -126 4 -3 44 50 90 119
46 69 88 123 93 120 8 -5 -38 -81 -132 -219 -15 -22 -25 -43 -21 -49 3 -5 44
50 92 122 47 72 89 131 94 131 17 0 3 -27 -71 -138 -96 -144 -95 -142 -84
-142 5 0 48 59 95 130 74 110 107 149 107 125 0 -3 -40 -66 -89 -140 -50 -74
-86 -137 -82 -140 5 -2 50 58 101 135 51 77 96 137 102 134 5 -3 2 -17 -8 -32
-10 -15 -51 -78 -92 -140 -42 -61 -73 -115 -69 -118 3 -3 48 57 99 135 88 132
115 160 133 131 3 -5 0 -8 -7 -5 -15 4 -203 -271 -190 -279 4 -2 28 25 52 62
134 201 137 204 143 177 2 -14 2 -23 -1 -20 -3 3 -33 -37 -67 -88 -95 -142
-98 -147 -88 -147 6 0 43 50 83 110 40 61 75 110 78 110 8 0 31 -34 32 -48 0
-7 -22 -45 -48 -85 -63 -94 -65 -97 -54 -97 5 0 33 35 61 78 28 43 58 79 65
79 15 0 -11 -47 -61 -113 -25 -33 -28 -44 -14 -44 5 0 29 32 54 70 28 43 47
65 50 56 3 -7 -10 -37 -30 -66 -19 -28 -32 -54 -29 -58 7 -6 5 -9 44 49 17 25
38 46 46 46 13 0 11 -6 -7 -31 -39 -52 -42 -59 -20 -48 10 6 25 21 32 35 7 13
19 24 27 24 17 0 19 -14 2 -20 -7 -2 -10 -7 -7 -11 4 -4 14 0 23 9 9 9 16 12
16 7 0 -14 81 -32 147 -32 143 1 280 109 316 248 7 29 17 49 22 45 5 -5 5 -1
-1 7 -11 16 -16 60 -7 60 3 0 12 -8 20 -17 12 -14 12 -13 0 7 -9 14 -20 24
-26 23 -6 -2 -8 4 -4 13 4 12 8 13 22 2 9 -7 7 -3 -5 8 -28 27 -19 41 10 17
21 -18 21 -18 2 4 -10 13 -23 20 -28 17 -4 -3 -7 0 -6 8 2 8 -6 13 -19 12 -13
-1 -20 3 -17 7 3 5 10 7 15 4 15 -10 4 36 -12 47 -11 7 -11 11 -1 15 10 4 10
8 0 21 -11 15 -11 15 3 5 9 -7 19 -10 23 -6 4 4 4 0 0 -10 -5 -13 -2 -16 10
-11 9 3 16 2 16 -4 0 -5 7 -13 16 -16 10 -4 13 -2 7 7 -13 20 -13 41 -1 29 6
-6 12 -25 13 -42 1 -24 -2 -30 -13 -25 -13 5 -13 3 -1 -11 14 -17 21 -154 9
-154 -3 0 -12 6 -20 13 -8 6 -6 1 5 -12 18 -20 20 -39 21 -162 0 -76 4 -142 7
-146 4 -4 34 -7 67 -7 33 0 60 -3 60 -7 0 -4 -11 -6 -25 -4 -21 2 -23 0 -13
-12 6 -8 14 -10 17 -6 9 12 44 16 37 5 -3 -6 0 -9 6 -8 17 2 22 21 6 21 -14 0
-20 83 -6 91 5 3 7 -5 4 -19 -3 -16 1 -24 10 -24 9 0 11 4 5 10 -5 5 -7 16 -4
23 3 8 -2 16 -10 19 -18 8 -17 43 3 55 18 12 31 13 28 3 -1 -5 4 -38 11 -75
12 -62 15 -68 38 -68 13 0 22 -4 19 -9 -8 -12 20 -22 41 -14 11 4 14 3 9 -5
-5 -8 -2 -10 8 -6 9 3 16 10 16 16 0 5 -4 7 -9 3 -5 -3 -13 0 -16 6 -5 7 1 9
16 7 16 -2 24 -9 23 -21 -2 -14 1 -15 12 -6 11 9 14 9 14 0 0 -7 5 -9 11 -5 8
4 4 11 -11 19 -18 10 -19 13 -7 18 9 3 17 1 20 -6 2 -7 4 3 4 21 0 17 -4 32
-9 32 -4 0 -7 -3 -7 -7 3 -19 -2 -33 -12 -33 -6 0 -7 5 -2 13 11 18 12 37 2
37 -6 0 -8 4 -4 10 3 5 13 7 23 4 13 -5 14 -4 3 4 -11 8 -11 11 0 16 8 3 3 3
-10 0 -18 -5 -22 -3 -15 7 13 21 15 49 3 49 -5 0 -7 5 -4 11 5 6 11 4 19 -6
10 -15 12 -14 12 4 0 11 -4 17 -8 15 -4 -3 -8 0 -8 6 0 6 -4 9 -8 6 -4 -2 -8
4 -8 14 0 17 2 18 16 5 15 -13 17 -13 17 0 0 8 -4 12 -9 9 -8 -5 -12 11 -9 30
1 5 -4 13 -11 17 -11 7 -11 9 0 9 7 0 10 6 7 13 -4 6 1 3 9 -7 13 -17 16 -17
16 -4 0 9 -9 20 -20 23 -11 4 -18 10 -15 15 3 5 13 7 23 4 13 -5 14 -4 3 4
-11 8 -11 11 0 16 8 3 3 3 -10 0 -18 -5 -22 -3 -15 7 13 21 15 49 3 49 -5 0
-7 5 -4 11 5 6 11 4 19 -6 10 -15 12 -14 12 4 0 11 -4 17 -8 15 -4 -3 -8 0 -8
6 0 6 -5 8 -12 4 -9 -5 -8 -2 1 10 11 13 16 14 23 4 7 -10 9 -10 5 2 -2 8 -13
14 -23 12 -15 -3 -16 -1 -7 8 6 7 9 20 6 29 -4 13 -2 13 10 -2 14 -17 15 -17
13 6 -1 18 -5 23 -20 19 -11 -3 -17 -1 -13 4 3 5 20 11 37 12 31 2 31 2 25
-37 -7 -49 2 -56 80 -56 51 -1 60 -4 57 -18 -2 -9 2 -17 8 -17 5 0 9 3 9 8 -3
20 2 33 11 27 6 -4 7 -11 4 -17 -4 -7 -2 -8 4 -4 15 9 3 38 -13 32 -8 -3 -12
5 -12 20 0 13 4 24 9 24 5 0 7 -4 4 -9 -3 -5 1 -12 10 -15 15 -6 15 -4 0 19
-16 24 -16 25 6 22 18 -3 22 -11 26 -54 l3 -51 -65 -22 c-119 -39 -149 -80
-149 -205 -1 -90 21 -150 59 -167 13 -6 21 -14 19 -19 -3 -4 0 -11 6 -15 8 -4
9 -3 5 4 -5 8 1 12 16 12 18 0 20 -2 8 -10 -8 -5 -10 -10 -5 -10 6 1 19 7 29
15 11 8 25 15 30 15 6 0 1 -8 -12 -18 -21 -17 -22 -18 -3 -18 11 0 17 4 14 9
-3 5 4 6 15 3 12 -4 22 -2 25 6 2 8 17 14 31 16 18 1 25 -2 20 -10 -4 -7 -3
-8 5 -4 18 12 101 17 101 7 0 -5 -11 -8 -25 -6 -21 2 -23 0 -13 -12 6 -8 14
-10 17 -6 9 12 44 16 36 4 -10 -17 1 -13 16 6 8 10 9 14 2 10 -18 -11 -28 13
-28 74 -1 51 1 56 20 52 18 -3 18 -2 -2 8 -13 7 -23 16 -23 21 0 5 10 6 23 3
15 -4 18 -3 8 3 -9 7 -10 12 -2 16 8 5 8 13 0 28 -8 16 -8 23 2 30 10 7 8 8
-7 4 -15 -5 -21 -2 -21 9 0 9 6 14 13 11 8 -3 16 -1 19 5 4 5 3 9 -2 8 -19 -3
-30 2 -30 16 0 12 3 12 16 2 12 -10 13 -9 7 1 -4 7 -3 19 4 27 8 10 7 16 -7
27 -21 15 -28 69 -8 61 7 -2 16 1 20 7 3 6 3 10 -2 9 -19 -3 -33 2 -33 11 0 6
6 10 13 8 7 -2 13 2 13 7 0 6 -5 9 -12 7 -11 -2 -12 33 -1 44 4 4 7 12 7 18 0
6 -4 5 -9 -2 -6 -11 -9 -9 -13 5 -4 15 1 20 26 21 l31 2 0 -212 c0 -117 4
-226 8 -241 7 -26 56 -86 74 -90 4 -1 7 -5 5 -9 -4 -14 16 -8 21 6 3 7 16 12
30 11 29 -3 37 2 61 35 15 21 17 22 14 5 -2 -11 -14 -28 -28 -37 -26 -18 -17
-25 10 -8 9 6 20 5 29 -3 12 -9 13 -9 8 0 -6 9 10 11 63 9 45 -2 70 1 71 8 1
6 2 22 2 36 2 19 7 24 22 22 16 -2 17 -1 5 7 -8 5 -17 8 -20 6 -4 -2 -6 25 -6
61 0 44 3 61 10 54 5 -5 14 -10 20 -10 5 0 0 8 -10 18 -18 15 -20 31 -20 160
0 78 4 142 9 142 5 0 7 -11 5 -25 -6 -28 7 -25 15 4 3 14 -1 22 -14 26 -11 4
-17 11 -13 16 3 6 12 5 22 -3 12 -10 14 -10 8 0 -5 8 -1 12 12 12 17 0 19 -5
13 -32 -4 -18 -7 -109 -6 -203 1 -154 3 -174 23 -216 12 -25 33 -52 47 -59 14
-7 25 -17 25 -21 0 -4 11 -6 25 -4 25 2 35 -10 13 -17 -8 -3 -6 -7 5 -11 9 -3
16 -3 16 1 -3 19 2 22 17 8 8 -9 20 -14 25 -10 6 3 18 0 27 -8 15 -12 16 -11
3 5 -8 10 -20 16 -27 13 -7 -3 -16 -1 -19 4 -10 16 34 11 61 -6 22 -15 24 -15
18 0 -3 9 -10 13 -15 10 -5 -3 -9 0 -9 6 0 6 6 10 13 8 6 -1 23 4 35 11 13 7
26 10 29 7 4 -3 13 0 21 7 13 10 14 9 10 -3 -3 -8 -14 -15 -25 -14 -12 0 -20
-7 -21 -20 0 -12 2 -16 6 -11 4 6 19 16 34 24 21 11 25 19 23 42 -3 18 0 27 8
25 7 -1 9 -1 5 1 -16 9 -7 25 10 18 14 -5 15 -4 4 7 -11 11 -16 10 -28 -6 -8
-11 -12 -29 -8 -40 4 -15 3 -17 -4 -8 -7 11 -11 10 -16 -4 -3 -9 -9 -15 -11
-12 -3 3 6 25 20 49 13 25 25 59 27 77 2 32 11 41 23 22 3 -5 1 -10 -6 -10 -7
0 -10 -3 -6 -6 12 -12 28 7 18 20 -6 7 -8 16 -4 20 4 4 0 4 -10 0 -13 -5 -17
-1 -17 20 0 26 -1 26 -75 26 l-74 0 0 -54 c1 -63 -4 -76 -32 -76 -19 0 -26 14
-11 23 4 2 2 2 -5 1 -7 -2 -15 1 -18 6 -6 9 8 14 28 11 4 0 7 4 7 9 0 6 -6 10
-14 8 -8 -2 -15 0 -15 5 -3 26 0 29 17 16 15 -12 16 -12 5 2 -10 12 -10 18 -1
27 9 9 9 12 0 12 -7 0 -12 -4 -12 -10 0 -5 -4 -10 -8 -10 -12 0 -7 70 6 81 7
5 10 6 7 3 -3 -4 1 -14 8 -22 10 -13 9 -15 -5 -9 -12 4 -15 2 -11 -9 5 -13 8
-13 23 1 9 8 20 12 25 8 4 -5 5 -2 1 5 -4 7 -12 10 -17 7 -5 -4 -9 0 -9 7 0 9
16 13 54 13 40 0 52 -3 48 -13 -3 -8 -13 -11 -25 -8 -15 4 -17 2 -8 -7 9 -9
16 -9 31 1 12 7 20 8 20 2 0 -5 5 -10 12 -10 9 0 9 3 0 12 -18 18 -15 27 7 21
20 -5 55 23 46 38 -4 5 -2 9 4 9 16 0 22 -18 9 -23 -9 -4 -10 -6 -1 -6 16 -1
26 16 14 24 -6 3 -8 12 -4 20 3 8 0 15 -7 15 -6 0 -8 -4 -5 -10 3 -5 2 -10 -3
-10 -4 0 -8 29 -8 64 0 36 3 63 7 60 4 -2 6 -13 4 -24 -2 -11 0 -20 6 -20 9 0
7 35 -3 46 -4 3 -4 13 -1 22 4 13 3 14 -5 4 -7 -11 -10 -10 -14 6 -5 16 0 19
26 18 l31 -1 0 -262 -1 -263 23 0 c20 0 27 -9 25 -31 0 -3 19 -5 42 -5 32 1
42 4 38 14 -2 8 -8 10 -11 5 -9 -11 -54 -10 -58 2 -2 6 16 10 44 10 54 -1 71
4 53 15 -9 6 -8 13 6 27 11 11 20 26 22 34 1 10 -2 8 -11 -3 -19 -24 -30 -23
-17 2 8 14 8 20 0 20 -7 0 -8 6 0 19 7 13 7 22 0 26 -7 4 -6 13 1 27 8 16 8
23 -2 30 -10 6 -6 7 11 3 17 -4 21 -3 11 3 -11 8 -11 11 0 16 8 3 3 3 -11 -1
-22 -5 -23 -4 -11 10 7 9 17 15 20 12 4 -2 8 2 8 10 0 8 -4 12 -9 9 -16 -10
-30 7 -17 22 9 11 9 14 0 14 -9 0 -9 5 -1 20 6 11 15 18 19 16 4 -3 8 1 8 9 0
18 -14 20 -20 3 -2 -7 -8 -10 -11 -6 -4 3 2 16 14 28 12 12 18 25 14 28 -3 4
-9 1 -11 -5 -3 -7 -9 -13 -14 -13 -6 0 -5 8 1 20 6 11 15 18 19 16 4 -3 8 1 8
9 0 18 -14 20 -20 3 -2 -7 -8 -10 -11 -6 -4 3 2 16 14 28 12 12 18 25 14 28
-3 4 -9 1 -11 -6 -3 -6 -9 -10 -14 -6 -5 3 -4 14 2 26 8 16 8 23 -2 30 -10 6
-6 7 11 3 17 -4 21 -3 11 3 -11 8 -11 11 0 16 8 3 3 3 -11 -1 -22 -5 -23 -4
-11 11 7 9 10 16 5 16 -4 0 10 19 33 42 67 70 88 120 88 213 0 70 -4 87 -30
133 -16 30 -42 65 -58 78 -40 34 -123 75 -132 66 -5 -4 -5 -2 -1 5 3 6 2 14
-3 17 -6 4 -6 18 0 38 6 23 5 34 -4 41 -8 6 -5 7 9 4 17 -3 21 0 19 20 0 14
-9 31 -20 39 -14 10 -15 14 -4 14 10 1 9 3 -3 11 -10 5 -18 16 -18 23 0 20
-44 56 -87 71 -51 18 -144 12 -185 -12 -18 -10 -41 -34 -50 -53 -18 -35 -25
-109 -10 -111 4 -1 38 -2 76 -3 49 -1 71 -6 74 -15 3 -8 0 -11 -5 -8 -5 3 -15
2 -22 -3 -9 -5 -4 -7 15 -7 24 1 29 6 31 29 1 15 -2 30 -6 33 -5 3 -7 -5 -3
-17 3 -14 2 -19 -7 -14 -14 9 -11 64 5 77 18 14 35 -14 39 -64 4 -44 4 -44
-38 -58 -23 -7 -61 -21 -84 -32 -39 -16 -132 -22 -134 -8 0 3 -1 50 -2 104 -1
68 1 97 10 97 7 0 9 -9 6 -22 -3 -13 -3 -20 1 -17 3 3 8 20 10 37 3 27 1 30
-14 22 -14 -8 -16 -4 -15 21 1 18 -3 29 -12 30 -7 1 -23 2 -35 2 -13 1 -29 8
-36 17 -10 12 -12 12 -10 1 2 -10 -8 -17 -27 -21 l-30 -5 0 -138 0 -137 -36 2
c-20 2 -36 8 -36 16 0 6 6 12 13 12 7 0 15 -6 17 -12 4 -10 6 -10 6 0 1 7 -9
17 -21 22 -20 7 -12 14 13 12 3 -1 6 6 6 13 0 11 -4 12 -14 4 -7 -6 -13 -8
-14 -3 0 5 -2 17 -4 27 -2 9 1 17 7 17 6 0 7 -7 4 -16 -3 -8 -2 -12 3 -9 6 3
9 14 8 25 -1 10 -5 16 -9 14 -12 -7 -10 10 2 22 7 7 4 17 -8 30 -10 11 -26 31
-36 46 -23 36 -80 61 -144 64 -107 4 -167 -36 -181 -124 -8 -53 0 -75 25 -65
8 3 14 -1 14 -11 0 -17 1 -18 42 -20 15 -1 24 2 22 6 -7 11 3 10 29 -3 21 -10
21 -10 2 6 -11 8 -26 13 -35 9 -25 -10 -43 -10 -47 2 -6 16 86 9 104 -9 17
-17 10 -37 -13 -37 -8 0 -35 -9 -59 -20 -52 -24 -158 -27 -127 -4 16 11 16 13
1 19 -14 5 -17 26 -17 143 0 75 0 154 -1 175 l-1 38 -112 -3 -113 -3 -12 -70
c-11 -66 -25 -176 -26 -202 0 -19 -24 -23 -37 -7 -7 8 -10 14 -7 14 3 0 2 13
-3 29 -6 22 -5 28 4 25 7 -3 13 2 13 11 0 9 -6 14 -13 11 -20 -7 -24 66 -5 82
14 12 14 13 -1 8 -10 -3 -18 0 -19 7 0 7 -2 20 -4 29 -2 12 2 15 13 11 12 -4
11 -1 -3 10 -11 8 -20 21 -20 29 0 9 -18 14 -61 16 l-61 3 4 44 c10 84 -41
182 -120 232 -33 21 -57 27 -112 29 -38 2 -85 -2 -103 -8z m13 -206 c-3 -3
-11 0 -18 7 -9 10 -8 11 6 5 10 -3 15 -9 12 -12z m53 -67 c-3 -3 -9 2 -12 12
-6 14 -5 15 5 6 7 -7 10 -15 7 -18z m43 -62 c13 -16 12 -17 -3 -4 -17 13 -22
21 -14 21 2 0 10 -8 17 -17z m27 -50 c-1 -5 4 -19 11 -33 l12 -25 -20 25 c-10
13 -17 28 -15 32 7 10 15 10 12 1z m-1118 -78 c0 -8 -4 -15 -10 -15 -5 0 -7 7
-4 15 4 8 8 15 10 15 2 0 4 -7 4 -15z m1999 -81 c-13 -16 -12 -16 8 -4 12 8
19 19 16 25 -4 7 -2 7 5 0 15 -15 21 -82 8 -99 -9 -12 -15 -9 -36 17 -14 17
-19 28 -12 24 6 -5 12 -4 12 2 0 5 -5 11 -11 13 -9 3 -9 10 0 27 7 12 15 20
18 17 3 -3 0 -13 -8 -22z m206 16 c3 -5 1 -10 -4 -10 -6 0 -11 5 -11 10 0 6 2
10 4 10 3 0 8 -4 11 -10z m641 -35 c1 -8 -1 -15 -5 -15 -14 0 -20 12 -14 26 6
17 16 11 19 -11z m-1204 -32 c-3 -16 -7 -22 -10 -15 -4 13 4 42 11 42 2 0 2
-12 -1 -27z m-137 -32 c-3 -12 -11 -18 -17 -15 -6 4 -5 10 3 15 11 7 9 9 -6
10 l-20 0 20 8 c25 11 28 8 20 -18z m-147 2 c0 -10 3 -27 8 -38 7 -17 6 -18
-7 -5 -15 14 -21 60 -8 60 4 0 7 -8 7 -17z m279 -33 c0 -16 -4 -30 -9 -30 -9
0 -11 22 -2 44 9 23 11 20 11 -14z m-137 -10 c0 -5 -2 -10 -4 -10 -3 0 -8 5
-11 10 -3 6 -1 10 4 10 6 0 11 -4 11 -10z m-394 -212 c10 -13 12 -17 4 -11
-11 10 -17 10 -29 0 -14 -10 -14 -10 -4 4 7 9 10 19 6 22 -3 4 -4 7 -1 7 3 0
13 -10 24 -22z m48 -46 c3 -5 -1 -9 -9 -9 -8 0 -12 4 -9 9 3 4 7 8 9 8 2 0 6
-4 9 -8z m-59 -62 c3 -5 1 -10 -4 -10 -6 0 -11 5 -11 10 0 6 2 10 4 10 3 0 8
-4 11 -10z m20 -29 c3 -5 2 -12 -3 -15 -5 -3 -9 1 -9 9 0 17 3 19 12 6z m166
-68 c13 -16 12 -17 -3 -4 -10 7 -18 15 -18 17 0 8 8 3 21 -13z m-203 -28 c-3
-3 -9 2 -12 12 -6 14 -5 15 5 6 7 -7 10 -15 7 -18z m16 -42 c5 -12 4 -13 -7
-5 -8 7 -16 10 -19 7 -2 -3 -5 1 -5 9 0 18 24 10 31 -11z m224 -129 c0 -17 -3
-22 -8 -13 -5 6 -6 18 -3 26 8 19 11 16 11 -13z m1247 -18 c6 -27 8 -54 6 -88
-1 -25 -4 -27 -37 -26 -31 1 -33 3 -17 12 10 6 19 18 21 26 2 11 -1 11 -11 -2
-17 -21 -28 -23 -24 -5 1 6 11 17 22 24 14 9 16 12 5 13 -13 0 -13 1 0 11 13
9 13 10 0 6 -8 -2 -14 -10 -12 -16 1 -6 -2 -11 -7 -11 -13 0 -9 40 4 41 5 1
15 1 22 0 6 -1 15 4 19 10 5 8 3 9 -6 4 -9 -6 -11 -4 -5 4 6 10 3 11 -14 2
-22 -12 -28 -2 -10 16 16 16 38 5 44 -21z m-431 12 c-3 -5 -9 -6 -14 -3 -5 3
-12 0 -16 -6 -4 -8 -3 -9 4 -5 7 4 12 2 12 -3 0 -6 -7 -11 -15 -11 -8 0 -15
-4 -15 -10 0 -5 7 -7 16 -3 14 5 15 3 5 -15 -22 -42 -29 -28 -22 49 0 9 11 15
25 15 14 0 22 -4 20 -8z m-1145 -22 c8 -10 9 -16 1 -21 -6 -4 -9 -1 -8 7 2 7
-3 12 -10 10 -8 -1 -11 2 -7 8 8 13 10 13 24 -4z m1162 -38 c3 -237 0 -293
-15 -313 -14 -19 -15 -19 -35 -1 -19 17 -19 20 -4 31 13 9 13 14 3 20 -9 6
-11 4 -5 -6 6 -11 5 -11 -5 -2 -16 15 -3 38 14 24 9 -8 13 -7 13 4 0 7 -3 14
-6 13 -19 -2 -31 3 -31 13 0 6 7 9 15 6 8 -4 17 -1 21 5 4 7 3 8 -4 4 -7 -4
-12 -2 -12 4 0 6 -3 9 -8 6 -4 -2 -7 34 -8 81 0 71 2 82 12 68 9 -13 10 -23 3
-36 -9 -18 3 -59 17 -59 2 0 0 9 -6 19 -12 24 -13 34 -1 27 9 -6 7 29 -5 58
-5 12 -4 17 3 13 5 -3 10 -1 11 6 0 7 3 21 6 32 2 11 5 23 5 28 1 4 6 7 11 7
6 0 10 -24 11 -52z m-1111 -8 c0 -5 -2 -10 -4 -10 -3 0 -8 5 -11 10 -3 6 -1
10 4 10 6 0 11 -4 11 -10z m-126 -8 c3 -5 -1 -9 -9 -9 -8 0 -12 4 -9 9 3 4 7
8 9 8 2 0 6 -4 9 -8z m27 -49 c13 -17 13 -17 -6 -3 -11 8 -22 16 -24 17 -2 2
0 3 6 3 6 0 17 -8 24 -17z m-10 -20 c13 -16 12 -17 -3 -4 -17 13 -22 21 -14
21 2 0 10 -8 17 -17z m44 8 c3 -5 2 -12 -3 -15 -5 -3 -9 1 -9 9 0 17 3 19 12
6z m-144 -18 c13 -16 12 -17 -3 -4 -10 7 -18 15 -18 17 0 8 8 3 21 -13z m426
-35 c-3 -8 -6 -5 -6 6 -1 11 2 17 5 13 3 -3 4 -12 1 -19z m645 7 c0 -5 -5 -11
-10 -13 -5 -1 -9 4 -9 13 0 9 4 14 9 13 5 -2 10 -8 10 -13z m-173 -87 c1 -103
-8 -130 -36 -112 -10 6 -18 15 -18 20 0 5 -4 15 -8 22 -5 6 -4 12 0 12 10 0
10 47 0 56 -3 4 -2 14 2 23 9 16 11 23 11 41 0 5 7 7 15 4 8 -4 17 1 21 10 3
9 7 16 9 16 2 0 3 -42 4 -92z m-464 20 c-2 -10 0 -18 4 -18 4 0 8 -7 8 -15 0
-8 -5 -12 -11 -9 -6 3 -3 -1 7 -9 17 -14 17 -15 -1 -19 -17 -5 -19 1 -19 54 0
33 3 54 8 47 4 -7 6 -21 4 -31z m639 -79 c-10 -17 -19 -9 -21 18 -1 26 0 26
13 9 7 -10 11 -23 8 -27z m-619 -9 c-3 -5 -13 -10 -21 -10 -8 0 -12 5 -9 10 3
6 13 10 21 10 8 0 12 -4 9 -10z m434 -162 c-8 -16 -14 -19 -17 -9 -2 7 2 24 9
39 11 19 15 21 17 9 2 -9 -2 -26 -9 -39z m-319 -8 c0 -5 -4 -10 -10 -10 -5 0
-10 5 -10 10 0 6 5 10 10 10 6 0 10 -4 10 -10z"/>
<path d="M3224 2043 c2 -9 8 -18 15 -19 6 -1 7 0 1 3 -5 2 -8 9 -5 13 3 5 1
11 -4 14 -5 4 -8 -2 -7 -11z"/>
<path d="M2811 2037 c2 -1 13 -9 24 -17 19 -14 19 -14 6 3 -7 9 -18 17 -24 17
-6 0 -8 -1 -6 -3z"/>
<path d="M2810 2016 c0 -2 8 -10 18 -17 15 -13 16 -12 3 4 -13 16 -21 21 -21
13z"/>
<path d="M2809 1989 c5 -6 7 -17 5 -23 -3 -7 0 -23 5 -37 9 -21 10 -20 7 14
-1 21 -8 42 -14 47 -8 7 -9 7 -3 -1z"/>
<path d="M1658 3523 c6 -2 18 -2 25 0 6 3 1 5 -13 5 -14 0 -19 -2 -12 -5z"/>
<path d="M1738 3523 c6 -2 18 -2 25 0 6 3 1 5 -13 5 -14 0 -19 -2 -12 -5z"/>
<path d="M1578 3513 c7 -3 16 -2 19 1 4 3 -2 6 -13 5 -11 0 -14 -3 -6 -6z"/>
<path d="M1498 3493 c7 -3 16 -2 19 1 4 3 -2 6 -13 5 -11 0 -14 -3 -6 -6z"/>
<path d="M1900 3486 c0 -2 7 -7 16 -10 8 -3 12 -2 9 4 -6 10 -25 14 -25 6z"/>
<path d="M1415 3460 c-3 -6 1 -7 9 -4 18 7 21 14 7 14 -6 0 -13 -4 -16 -10z"/>
<path d="M1268 3423 c-82 -52 -46 -173 51 -173 66 0 107 52 90 116 -17 62 -88
91 -141 57z"/>
<path d="M3396 3280 c-1 -3 -2 -25 -2 -50 1 -38 4 -45 21 -45 14 0 19 -6 17
-20 -4 -20 -3 -20 11 0 13 17 17 18 33 5 13 -11 16 -11 10 -2 -6 10 -3 13 10
12 47 -5 50 -2 49 48 -1 26 -3 50 -4 53 -1 8 -142 6 -145 -1z"/>
<path d="M3560 3210 c-8 -5 -12 -12 -9 -15 4 -3 12 1 19 10 14 17 11 19 -10 5z"/>
<path d="M2925 3199 c-4 -6 -5 -12 -2 -15 2 -3 7 2 10 11 7 17 1 20 -8 4z"/>
<path d="M3563 3183 c-16 -6 -17 -36 -1 -31 6 2 12 12 14 21 1 9 2 17 1 16 -1
0 -8 -3 -14 -6z"/>
<path d="M2586 3168 c3 -5 10 -6 15 -3 13 9 11 12 -6 12 -8 0 -12 -4 -9 -9z"/>
<path d="M2925 3120 c1 -27 3 -52 6 -55 3 -2 5 10 4 28 0 17 3 34 6 37 4 3 2
13 -5 22 -10 14 -12 9 -11 -32z"/>
<path d="M3525 3160 c-3 -5 -1 -10 4 -10 6 0 11 5 11 10 0 6 -2 10 -4 10 -3 0
-8 -4 -11 -10z"/>
<path d="M2600 3086 c0 -9 5 -16 10 -16 6 0 10 4 10 9 0 6 -4 13 -10 16 -5 3
-10 -1 -10 -9z"/>
<path d="M2921 3034 c0 -11 3 -14 6 -6 3 7 2 16 -1 19 -3 4 -6 -2 -5 -13z"/>
<path d="M2622 3024 c-7 -8 -8 -14 -3 -14 10 0 25 19 20 25 -2 1 -10 -3 -17
-11z"/>
<path d="M3770 3023 c0 -4 5 -15 10 -23 8 -13 10 -13 10 2 0 9 -4 20 -10 23
-5 3 -10 3 -10 -2z"/>
<path d="M2315 3010 c3 -5 8 -10 11 -10 2 0 4 5 4 10 0 6 -5 10 -11 10 -5 0
-7 -4 -4 -10z"/>
<path d="M3562 3013 c-6 -2 -10 -9 -6 -14 8 -14 21 -11 21 6 0 8 -1 15 -1 14
-1 0 -7 -3 -14 -6z"/>
<path d="M2220 2999 c0 -5 5 -7 10 -4 6 3 10 8 10 11 0 2 -4 4 -10 4 -5 0 -10
-5 -10 -11z"/>
<path d="M2925 2959 c0 -27 3 -49 7 -49 4 0 6 13 4 30 -2 16 0 31 5 32 4 2 2
10 -5 20 -10 13 -12 8 -11 -33z"/>
<path d="M2260 2990 c0 -6 7 -10 15 -10 8 0 15 2 15 4 0 2 -7 6 -15 10 -8 3
-15 1 -15 -4z"/>
<path d="M2616 2985 c4 -8 8 -15 10 -15 2 0 4 7 4 15 0 8 -4 15 -10 15 -5 0
-7 -7 -4 -15z"/>
<path d="M2300 2969 c0 -5 5 -7 10 -4 6 3 10 8 10 11 0 2 -4 4 -10 4 -5 0 -10
-5 -10 -11z"/>
<path d="M3555 2970 c-4 -6 -2 -17 4 -24 6 -7 9 -16 6 -19 -3 -4 -2 -5 2 -2
11 9 14 43 4 50 -5 3 -13 1 -16 -5z"/>
<path d="M2245 2950 c-3 -5 -1 -10 4 -10 6 0 11 5 11 10 0 6 -2 10 -4 10 -3 0
-8 -4 -11 -10z"/>
<path d="M2283 2937 c0 -7 -4 -21 -9 -31 -5 -13 -4 -17 3 -13 14 9 23 46 14
52 -4 2 -8 -1 -8 -8z"/>
<path d="M3645 2939 c-4 -6 -5 -12 -2 -15 2 -3 7 2 10 11 7 17 1 20 -8 4z"/>
<path d="M3677 2933 c3 -7 6 -13 8 -13 2 0 5 6 8 13 3 8 -1 14 -8 14 -7 0 -11
-6 -8 -14z"/>
<path d="M2230 2909 c0 -5 5 -7 10 -4 6 3 10 8 10 11 0 2 -4 4 -10 4 -5 0 -10
-5 -10 -11z"/>
<path d="M3567 2889 c4 -13 8 -18 11 -10 2 7 -1 18 -6 23 -8 8 -9 4 -5 -13z"/>
<path d="M3967 2895 c-6 -15 10 -32 20 -21 4 3 1 6 -7 6 -10 0 -10 3 0 15 7 9
8 15 2 15 -5 0 -12 -7 -15 -15z"/>
<path d="M2310 2879 c0 -5 5 -7 10 -4 6 3 10 8 10 11 0 2 -4 4 -10 4 -5 0 -10
-5 -10 -11z"/>
<path d="M433 2435 c0 -8 4 -12 9 -9 5 3 6 10 3 15 -9 13 -12 11 -12 -6z"/>
<path d="M4075 2331 c-3 -5 -2 -12 3 -15 5 -3 9 1 9 9 0 17 -3 19 -12 6z"/>
<path d="M2187 2259 c7 -7 15 -10 18 -7 3 3 -2 9 -12 12 -14 6 -15 5 -6 -5z"/>
<path d="M2170 2247 c0 -2 15 -16 33 -33 l32 -29 -29 33 c-28 30 -36 37 -36
29z"/>
<path d="M2755 2179 c-4 -6 -5 -12 -2 -15 2 -3 7 2 10 11 7 17 1 20 -8 4z"/>
<path d="M3450 2178 c12 -14 13 -31 3 -25 -5 3 -9 -14 -9 -36 -1 -23 1 -36 3
-29 3 6 10 9 16 5 7 -4 7 0 -1 9 -10 13 -11 22 -2 39 10 17 9 24 -4 35 -9 8
-11 9 -6 2z"/>
<path d="M3860 2156 c0 -2 7 -7 16 -10 8 -3 12 -2 9 4 -6 10 -25 14 -25 6z"/>
<path d="M3032 2131 c-11 -6 -10 -10 0 -19 11 -8 14 -7 14 9 0 10 0 19 -1 19
0 0 -6 -4 -13 -9z"/>
<path d="M3447 2060 c7 -7 9 -20 4 -29 -11 -24 -8 -44 9 -48 12 -4 12 -3 2 5
-17 12 -18 13 -4 38 9 18 8 24 -6 35 -14 11 -15 11 -5 -1z"/>
<path d="M4070 2063 c0 -5 5 -15 10 -23 7 -12 9 -10 7 8 -1 19 -17 33 -17 15z"/>
<path d="M3831 2043 c-9 -7 -14 -13 -11 -13 41 -9 50 -8 59 8 8 14 5 18 -11
18 -11 0 -27 -6 -37 -13z m34 -3 c3 -5 1 -10 -4 -10 -6 0 -11 5 -11 10 0 6 2
10 4 10 3 0 8 -4 11 -10z"/>
<path d="M853 2022 c-24 -4 -63 -46 -63 -69 0 -26 30 -72 51 -78 53 -17 110
26 102 78 -8 53 -40 77 -90 69z m47 -61 c7 -15 6 -23 -6 -35 -8 -9 -19 -16
-24 -16 -5 0 -16 7 -24 16 -20 19 -5 54 24 54 11 0 24 -9 30 -19z"/>
<path d="M1495 1863 c-84 -128 -87 -133 -76 -133 6 0 37 39 69 88 76 113 74
110 64 115 -4 3 -30 -29 -57 -70z"/>
<path d="M3445 1920 c3 -5 8 -10 11 -10 2 0 4 5 4 10 0 6 -5 10 -11 10 -5 0
-7 -4 -4 -10z"/>
<path d="M4070 1900 c0 -5 5 -10 10 -10 6 0 10 5 10 10 0 6 -4 10 -10 10 -5 0
-10 -4 -10 -10z"/>
<path d="M3450 1885 c9 -11 9 -15 1 -15 -7 0 -9 -5 -5 -11 4 -8 9 -7 15 2 12
20 11 26 -7 33 -14 5 -15 4 -4 -9z"/>
<path d="M3867 1893 c-10 -10 -8 -23 4 -23 5 0 8 4 5 9 -4 5 0 12 6 14 7 3 8
6 2 6 -6 1 -14 -2 -17 -6z"/>
<path d="M4070 1860 c0 -5 5 -10 10 -10 6 0 10 5 10 10 0 6 -4 10 -10 10 -5 0
-10 -4 -10 -10z"/>
<path d="M3030 1829 c0 -5 5 -7 10 -4 6 3 10 8 10 11 0 2 -4 4 -10 4 -5 0 -10
-5 -10 -11z"/>
<path d="M3026 1793 c-8 -20 9 -40 19 -22 5 8 4 10 -3 5 -16 -9 -15 7 0 22 8
8 8 12 1 12 -6 0 -14 -8 -17 -17z"/>
<path d="M3442 1798 c2 -6 10 -13 16 -14 7 -1 8 0 2 3 -5 2 -8 9 -4 14 3 5 0
9 -6 9 -7 0 -10 -5 -8 -12z"/>
<path d="M4070 1780 c0 -5 5 -10 10 -10 6 0 10 5 10 10 0 6 -4 10 -10 10 -5 0
-10 -4 -10 -10z"/>
<path d="M2395 1770 c-3 -5 -1 -10 4 -10 6 0 11 5 11 10 0 6 -2 10 -4 10 -3 0
-8 -4 -11 -10z"/>
<path d="M3445 1760 c3 -5 8 -10 11 -10 2 0 4 5 4 10 0 6 -5 10 -11 10 -5 0
-7 -4 -4 -10z"/>
<path d="M3756 1752 c-2 -4 -1 -14 4 -22 7 -11 9 -9 7 8 -1 24 -3 26 -11 14z"/>
<path d="M4075 1749 c-4 -6 -14 -8 -22 -4 -14 5 -14 3 -2 -11 8 -10 15 -12 17
-5 2 6 7 9 11 7 4 -3 8 1 8 9 0 18 -3 19 -12 4z"/>
<path d="M3183 1736 c0 -17 30 -14 33 3 2 7 0 7 -3 1 -3 -7 -9 -8 -17 -1 -9 8
-13 7 -13 -3z"/>
<path d="M3320 1744 c0 -1 6 -7 14 -13 10 -9 15 -8 19 2 3 8 -3 13 -14 13 -11
0 -19 -1 -19 -2z"/>
<path d="M3408 1738 c6 -6 24 -13 39 -14 23 -2 25 -1 10 7 -9 6 -22 7 -27 4
-6 -3 -10 -1 -10 4 0 6 -5 11 -12 11 -9 0 -9 -3 0 -12z"/>
<path d="M2281 1731 c-10 -7 -7 -9 12 -8 14 1 23 5 20 10 -6 9 -15 9 -32 -2z"/>
<path d="M2921 1731 c-10 -7 -7 -9 12 -8 14 1 23 5 20 10 -6 9 -15 9 -32 -2z"/>
<path d="M3255 1730 c-3 -6 1 -7 9 -4 18 7 21 14 7 14 -6 0 -13 -4 -16 -10z"/>
<path d="M3366 1732 c-2 -4 4 -8 14 -8 10 0 16 4 14 8 -3 4 -9 8 -14 8 -5 0
-11 -4 -14 -8z"/>
</g>
</svg>
